<svg width="40" height="40" viewBox="0 0 40 40" fill="none" xmlns="http://www.w3.org/2000/svg">
<circle cx="20" cy="20" r="19.5" stroke="#AF967E"/>
<path d="M25 31H15L18.5 29.5L20 30.5L21.5 29.5L25 31Z" stroke="#AF967E"/>
<path d="M18.9997 15.5L19 22.5C19 22.5 18 23.5 18 25.5C18 27.5 19.6253 27.8054 20.9997 27.5C21.687 27.3473 22.4997 26.5 22.4997 26.5C22.4997 26.5 24.0855 26.6904 24.4997 26C24.9139 25.3096 23.9997 24 23.9997 24" stroke="#AF967E"/>
<path d="M16.4999 24C16.4999 24 15.6848 25.1856 16 26C16.3594 26.9285 17.9999 26.5 17.9999 26.5" stroke="#AF967E"/>
<path d="M24 17C24 17 25.5 15 28.5 15C31.5 15 32.5 17 32.5 17" stroke="#AF967E"/>
<path d="M23 12C23 12 24.5882 10 27.7647 10C30.9412 10 32 12 32 12" stroke="#AF967E"/>
<circle cx="28.5" cy="16.5" r="1.5" fill="#AF967E"/>
<path d="M16.5 17C16.5 17 15 15 12 15C9 15 8 17 8 17" stroke="#AF967E"/>
<path d="M17.5 12C17.5 12 15.9118 10 12.7353 10C9.55882 10 8.5 12 8.5 12" stroke="#AF967E"/>
<circle cx="1.5" cy="1.5" r="1.5" transform="matrix(-1 0 0 1 13.5 15)" fill="#AF967E"/>
</svg>
