<svg width="93" height="93" viewBox="0 0 93 93" fill="none" xmlns="http://www.w3.org/2000/svg">
<circle cx="46.0726" cy="46.0726" r="19.5" stroke="#AF967E"/>
<path d="M35.0726 29.5726L13.5726 13.5726L30.5726 34.5726" stroke="#AF967E"/>
<path d="M26.5891 42.3862L0.0725708 46.2753L26.9426 49.1037" stroke="#AF967E"/>
<path d="M30.0726 58.0726L14.0726 79.5726L35.0726 62.5726" stroke="#AF967E"/>
<path d="M43.3862 65.6081L47.2753 92.1246L50.1038 65.2545" stroke="#AF967E"/>
<path d="M49.8109 26.5891L45.9218 0.072557L43.0934 26.9426" stroke="#AF967E"/>
<path d="M42.5725 26.5724C42.5725 26.5724 40.9969 23.3491 39.5725 21.5724C38.1482 19.7957 35.2897 18.9898 33.852 16.5724C32.4143 14.155 33.7706 11.729 32.1572 9.57242C30.5439 7.41588 26.0726 5.57256 26.0726 5.57256C26.0726 5.57256 28.5569 7.94873 29.5725 10.5724C30.5882 13.1961 29.0726 17.5727 30.0726 19.5726C31.0725 21.5724 32.8364 21.4156 34.0726 23.0726C35.3087 24.7295 35.5468 29.2267 35.5468 29.2267" stroke="#AF967E"/>
<path d="M27.574 50.2181C27.574 50.2181 24.2136 51.4752 22.3077 52.7213C20.4018 53.9675 19.3238 56.7348 16.7788 57.9325C14.2339 59.1301 11.9501 57.5459 9.64791 58.9435C7.34568 60.3412 5.07931 64.6136 5.07931 64.6136C5.07931 64.6136 7.68423 62.3703 10.3937 61.6127C13.1032 60.8551 17.313 62.7861 19.4001 61.9839C21.4871 61.1816 21.5013 59.4109 23.2699 58.3404C25.0384 57.27 29.5376 57.4673 29.5376 57.4673" stroke="#AF967E"/>
<path d="M49.9648 66.1236C49.9648 66.1236 51.8687 69.1646 53.4709 70.7827C55.0731 72.4009 58.0001 72.9037 59.6825 75.1576C61.365 77.4116 60.2696 79.9661 62.0994 81.9422C63.9293 83.9184 68.5688 85.2844 68.5688 85.2844C68.5688 85.2844 65.8497 83.1808 64.5655 80.6776C63.2813 78.1744 64.3313 73.6634 63.1278 71.779C61.9243 69.8946 60.1865 70.2348 58.784 68.7161C57.3815 67.1974 56.6748 62.7497 56.6748 62.7497" stroke="#AF967E"/>
<path d="M65.6843 42.2723C65.6843 42.2723 69.0447 41.0151 70.9506 39.769C72.8565 38.5228 73.9345 35.7555 76.4795 34.5579C79.0244 33.3602 81.3082 34.9444 83.6104 33.5468C85.9126 32.1492 88.179 27.8767 88.179 27.8767C88.179 27.8767 85.5741 30.12 82.8646 30.8776C80.1551 31.6352 75.9453 29.7042 73.8582 30.5065C71.7712 31.3087 71.757 33.0795 69.9884 34.1499C68.2199 35.2203 63.7207 35.0231 63.7207 35.0231" stroke="#AF967E"/>
<path d="M27.574 41.2723C27.574 41.2723 24.2136 40.0151 22.3077 38.769C20.4018 37.5228 19.3238 34.7555 16.7788 33.5579C14.2339 32.3602 11.9501 33.9444 9.64791 32.5468C7.34568 31.1492 5.07931 26.8767 5.07931 26.8767C5.07931 26.8767 7.68423 29.12 10.3937 29.8776C13.1032 30.6352 17.313 28.7042 19.4001 29.5065C21.4871 30.3087 21.5013 32.0795 23.2699 33.1499C25.0384 34.2203 29.5376 34.0231 29.5376 34.0231" stroke="#AF967E"/>
<path d="M42.8887 65.3155C42.8887 65.3155 41.395 68.5776 40.0161 70.3897C38.6371 72.2018 35.7999 73.0797 34.4237 75.5327C33.0476 77.9857 34.4648 80.3767 32.9064 82.5733C31.3481 84.77 26.9248 86.7257 26.9248 86.7257C26.9248 86.7257 29.3483 84.2875 30.2973 81.639C31.2463 78.9905 29.6206 74.6536 30.5697 72.6291C31.5188 70.6046 33.2861 70.7168 34.4799 69.0291C35.6738 67.3414 35.7981 62.8397 35.7981 62.8397" stroke="#AF967E"/>
<path d="M64.9521 49.9942C64.9521 49.9942 68.1515 51.6178 69.9067 53.0685C71.662 54.5192 72.4251 57.3894 74.8208 58.863C77.2165 60.3367 79.6625 59.0167 81.7947 60.6621C83.9269 62.3075 85.7033 66.8058 85.7033 66.8058C85.7033 66.8058 83.3644 64.2863 80.7562 63.2316C78.148 62.1769 73.7493 63.627 71.7645 62.5973C69.7798 61.5675 69.963 59.8062 68.3247 58.5455C66.6864 57.2847 62.1932 56.9795 62.1932 56.9795" stroke="#AF967E"/>
<path d="M50.323 26.806C50.323 26.806 52.1321 23.7076 53.6835 22.0408C55.235 20.374 58.1451 19.781 59.7571 17.4762C61.3692 15.1713 60.1954 12.6519 61.9634 10.6202C63.7314 8.58848 68.3264 7.07985 68.3264 7.07985C68.3264 7.07985 65.6736 9.26639 64.4673 11.808C63.261 14.3497 64.4498 18.8261 63.3051 20.7468C62.1604 22.6675 60.4129 22.3811 59.0579 23.9424C57.703 25.5037 57.134 29.971 57.134 29.971" stroke="#AF967E"/>
<path d="M57.0726 62.0726L78.5726 78.0726L61.5726 57.0726" stroke="#AF967E"/>
<path d="M65.6081 49.8109L92.1246 45.9218L65.2545 43.0934" stroke="#AF967E"/>
<path d="M63.0726 35.5726L79.0726 14.0726L58.0726 31.0726" stroke="#AF967E"/>
<path d="M51.0726 57.0726H41.0726L44.5726 55.5726L46.0726 56.5726L47.5726 55.5726L51.0726 57.0726Z" stroke="#AF967E"/>
<path d="M45.0723 41.5726L45.0726 48.5726C45.0726 48.5726 44.0726 49.5726 44.0726 51.5726C44.0726 53.5726 45.6979 53.8779 47.0723 53.5726C47.7596 53.4199 48.5723 52.5726 48.5723 52.5726C48.5723 52.5726 50.1581 52.7629 50.5723 52.0726C50.9865 51.3822 50.0723 50.0726 50.0723 50.0726" stroke="#AF967E"/>
<path d="M42.5725 50.0726C42.5725 50.0726 41.7573 51.2582 42.0726 52.0726C42.432 53.0011 44.0725 52.5726 44.0725 52.5726" stroke="#AF967E"/>
<path d="M50.0726 43.0726C50.0726 43.0726 51.5726 41.0726 54.5726 41.0726C57.5726 41.0726 58.5726 43.0726 58.5726 43.0726" stroke="#AF967E"/>
<path d="M49.0726 38.0726C49.0726 38.0726 50.6608 36.0726 53.8373 36.0726C57.0137 36.0726 58.0726 38.0726 58.0726 38.0726" stroke="#AF967E"/>
<circle cx="54.5726" cy="42.5726" r="1.5" fill="#AF967E"/>
<path d="M42.5726 43.0726C42.5726 43.0726 41.0726 41.0726 38.0726 41.0726C35.0726 41.0726 34.0726 43.0726 34.0726 43.0726" stroke="#AF967E"/>
<path d="M43.5726 38.0726C43.5726 38.0726 41.9843 36.0726 38.8079 36.0726C35.6314 36.0726 34.5726 38.0726 34.5726 38.0726" stroke="#AF967E"/>
<circle cx="1.5" cy="1.5" r="1.5" transform="matrix(-1 0 0 1 39.5726 41.0726)" fill="#AF967E"/>
</svg>
